# xmcd CD database file
#
# Track frame offsets:
#	150
#	10479
#	34590
#	44447
#	57064
#	67896
#	86191
#	104320
#	119018
#	134360
#	147160
#	159865
#
# Disc length: 2292 seconds
#
# Revision: 0
# Processed by: cddbd v1.5.2PL0 Copyright (c) Steve Scherf et al.
# Submitted via: CDex 1.51
#
DISCID=a008f20c
DTITLE=Albert Collins - Trash Talkin'
DYEAR=1900
DGENRE=Blues
TTITLE0=Harris County Line-Up
TTITLE1=Conversation With Collins
TTITLE2=Jawing
TTITLE3=Grapeland Gossip
TTITLE4=Chatterbox
TTITLE5=Trash Talkin'
TTITLE6=Medley: Baby What You Want Me To Do - Rock Me Baby
TTITLE7=Lip Service
TTITLE8=Talking Slim Blues
TTITLE9=Back-Yard Back-Talk
TTITLE10=Tongue Lashing
TTITLE11=And Then It Started Raining
EXTD=
EXTT0=
EXTT1=
EXTT2=
EXTT3=
EXTT4=
EXTT5=
EXTT6=
EXTT7=
EXTT8=
EXTT9=
EXTT10=
EXTT11=
PLAYORDER=
